<svg version="1.0" xmlns="http://www.w3.org/2000/svg" width="268pt" height="62pt" viewBox="0 0 268 62" style="" preserveAspectRatio="xMidYMid meet">
        <g fill="#F6D270FE" stroke="#F6D270FE">
        <path d="M 29.485 2.818 C 29.751 3.084 29.188 3.873 28.234 4.571 C 26.964 5.499 26.491 5.526 26.465 4.669 C 26.445 4.026 25.860 4.525 25.164 5.778 C 24.469 7.031 23.519 7.821 23.055 7.534 C 22.590 7.247 21.941 7.712 21.612 8.569 C 21.283 9.426 20.608 9.876 20.112 9.569 C 19.616 9.262 18.941 9.712 18.612 10.569 C 18.283 11.426 17.608 11.876 17.112 11.569 C 16.616 11.262 15.941 11.712 15.612 12.569 C 15.283 13.426 14.608 13.876 14.112 13.569 C 13.616 13.262 12.942 13.709 12.615 14.561 C 12.164 15.736 11.594 15.863 10.260 15.086 C 9.292 14.522 8.799 14.047 9.164 14.030 C 9.528 14.014 9.455 12.763 8.999 11.250 L 8.172 8.500 8.086 11.691 C 8.039 13.446 8.563 15.239 9.250 15.676 C 9.938 16.112 10.050 16.476 9.500 16.485 C 8.950 16.493 7.538 17.462 6.363 18.637 C 5.187 19.813 3.463 21.201 2.530 21.723 C 1.054 22.549 0.927 23.736 1.548 30.862 C 2.209 38.436 2.486 39.210 5.237 41.169 C 9.754 44.385 18.284 44.837 16.329 41.757 C 15.721 40.799 15.527 40.847 15.515 41.956 C 15.507 42.789 14.645 42.209 13.500 40.598 C 12.400 39.050 11.725 38.556 12.000 39.500 C 12.275 40.444 11.600 39.950 10.500 38.402 C 9.291 36.701 8.467 36.164 8.416 37.044 C 8.268 39.611 6.000 32.981 6.000 29.982 C 6.000 27.401 7.227 26.290 17.526 19.547 C 23.865 15.396 29.265 12.000 29.526 12.000 C 29.787 12.000 30.000 14.153 30.000 16.784 C 30.000 21.040 29.668 21.765 27.000 23.341 C 23.643 25.324 23.000 28.858 25.536 31.393 C 26.380 32.238 27.055 33.170 27.036 33.464 C 27.016 33.759 27.053 34.113 27.118 34.250 C 27.184 34.388 27.184 34.163 27.118 33.750 C 27.053 33.338 27.631 33.000 28.402 33.000 C 29.173 33.000 30.260 31.694 30.816 30.097 C 31.464 28.238 32.470 27.249 33.613 27.347 C 34.865 27.454 35.371 26.828 35.310 25.250 C 35.262 24.013 35.172 23.311 35.111 23.691 C 35.050 24.071 34.339 23.509 33.532 22.441 C 31.662 19.969 31.415 10.510 33.250 11.676 C 34.493 12.465 35.037 12.636 37.059 12.875 C 37.641 12.944 37.843 13.445 37.507 13.989 C 37.164 14.544 37.542 14.729 38.370 14.412 C 39.181 14.100 40.891 14.356 42.172 14.979 L 44.500 16.113 42.090 14.017 C 40.765 12.864 38.968 11.522 38.098 11.035 C 37.228 10.548 36.819 9.848 37.188 9.479 C 37.557 9.109 39.804 10.092 42.180 11.661 C 50.076 16.878 50.438 14.673 42.585 9.190 C 38.413 6.277 34.993 4.255 34.985 4.697 C 34.976 5.139 34.562 4.857 34.065 4.070 C 33.567 3.284 32.224 2.572 31.080 2.488 C 29.937 2.403 29.219 2.552 29.485 2.818 M 25.416 10.053 C 16.200 15.972 14.600 15.746 23.500 9.782 C 27.350 7.203 30.912 5.209 31.416 5.351 C 31.920 5.494 29.220 7.610 25.416 10.053 M 11.170 19.393 C 4.627 23.523 2.831 23.715 8.500 19.678 C 11.250 17.719 13.948 16.240 14.496 16.391 C 15.044 16.541 13.547 17.892 11.170 19.393 "/></g>
        <g fill="#EEEEEEFE" stroke="#EEEEEEFE">
        <path d="M 18.250 19.501 C 7.146 26.928 7.000 27.076 7.000 30.902 C 7.000 34.701 7.234 34.948 18.750 43.286 L 30.500 51.794 30.789 44.556 L 31.078 37.318 26.789 34.438 C 24.430 32.854 22.200 31.545 21.834 31.529 C 19.626 31.433 15.000 26.655 15.000 24.470 C 15.000 21.489 15.369 21.447 19.443 23.965 L 22.622 25.930 26.358 23.272 C 29.806 20.818 30.071 20.281 29.797 16.295 L 29.500 11.977 18.250 19.501 M 28.000 42.000 C 28.000 45.333 27.556 48.000 27.000 48.000 C 26.444 48.000 26.000 45.333 26.000 42.000 C 26.000 38.667 26.444 36.000 27.000 36.000 C 27.556 36.000 28.000 38.667 28.000 42.000 M 16.985 36.676 C 19.987 38.698 21.930 40.523 21.303 40.732 C 20.283 41.072 10.000 34.407 10.000 33.406 C 10.000 32.372 11.948 33.284 16.985 36.676 "/></g>
        <g fill="#EE723EFE" stroke="#EE723EFE">
        <path d="M 52.760 16.307 C 52.234 17.589 52.784 18.822 54.656 20.557 C 57.873 23.539 56.868 23.754 52.904 20.932 C 51.307 19.794 49.993 19.232 49.985 19.682 C 49.976 20.132 49.565 19.861 49.071 19.080 C 48.576 18.299 47.043 17.611 45.663 17.551 C 42.331 17.405 43.011 18.254 50.062 23.042 C 55.610 26.809 56.000 27.331 56.000 30.978 C 56.000 34.818 55.808 35.018 44.083 43.440 C 37.529 48.148 31.655 52.000 31.030 52.000 C 30.405 52.000 28.230 50.908 26.197 49.573 C 24.164 48.237 22.867 47.787 23.315 48.573 C 23.905 49.606 23.576 50.000 22.124 50.000 C 18.483 50.000 19.000 51.660 23.715 55.103 C 26.273 56.971 28.971 58.867 29.710 59.315 C 30.621 59.867 35.575 56.835 45.055 49.924 C 52.755 44.311 59.357 39.231 59.725 38.636 C 60.628 37.175 61.334 20.333 60.455 21.211 C 60.074 21.593 59.082 21.225 58.252 20.395 C 57.422 19.564 56.125 19.122 55.371 19.411 C 54.617 19.700 53.948 19.389 53.885 18.719 C 53.821 18.048 53.709 16.825 53.635 16.000 C 53.533 14.873 53.316 14.949 52.760 16.307 "/></g>
        <g fill="#68C0DEFE" stroke="#68C0DEFE">
        <path d="M 32.007 16.224 C 32.013 19.960 32.442 20.791 35.404 22.809 C 37.928 24.527 38.899 26.005 39.200 28.591 C 39.569 31.749 39.230 32.304 35.470 34.682 C 31.956 36.905 31.415 37.689 31.870 39.899 L 32.405 42.500 32.952 39.582 C 33.592 36.176 36.000 34.828 36.000 37.877 C 36.000 39.685 37.009 39.307 44.750 34.593 C 49.563 31.663 53.001 29.737 52.391 30.313 C 51.781 30.890 51.452 32.068 51.661 32.931 C 51.904 33.938 50.209 35.689 46.924 37.821 C 44.111 39.648 42.047 41.380 42.338 41.672 C 42.630 41.963 42.110 42.955 41.184 43.876 C 40.258 44.798 43.009 43.081 47.297 40.063 C 54.974 34.659 55.090 34.513 54.797 30.632 C 54.517 26.920 54.004 26.345 46.000 20.777 C 41.325 17.524 36.263 14.207 34.750 13.406 L 32.000 11.949 32.007 16.224 M 42.677 19.666 C 45.655 21.717 48.000 24.097 48.000 25.068 C 48.000 26.023 46.538 27.668 44.750 28.725 C 42.963 29.782 42.288 29.974 43.250 29.153 C 45.089 27.583 45.760 22.412 43.982 23.511 C 43.133 24.036 40.089 22.513 34.688 18.862 C 33.545 18.089 34.675 16.000 36.236 16.000 C 36.851 16.000 39.749 17.650 42.677 19.666 "/></g>
        <g fill="#EE723EFE" stroke="#EE723EFE">
        <path d="M 112.345 17.931 C 110.350 19.148 108.943 20.984 108.516 22.927 C 108.028 25.149 107.240 26.032 105.671 26.116 C 103.890 26.211 103.825 26.316 105.311 26.701 C 107.334 27.225 107.118 29.398 104.137 38.500 C 102.662 43.006 102.179 43.531 99.250 43.813 C 97.237 44.007 96.000 44.673 96.000 45.563 C 96.000 47.303 97.396 47.392 100.316 45.837 C 104.112 43.815 105.354 41.451 107.982 31.250 C 108.841 27.918 109.555 26.978 111.289 26.900 L 113.500 26.801 111.327 26.150 C 109.285 25.539 109.236 25.304 110.528 22.250 C 111.663 19.568 112.451 19.000 115.035 19.000 C 117.008 19.000 118.020 18.561 117.771 17.813 C 117.122 15.866 115.680 15.898 112.345 17.931 "/></g>
        <g fill="#F2B458FE" stroke="#F2B458FE">
        <path d="M 14.954 42.428 C 16.286 44.048 16.185 44.167 13.750 43.848 C 12.288 43.657 11.116 43.950 11.146 44.500 C 11.176 45.050 11.605 45.388 12.100 45.250 C 12.595 45.113 13.000 45.434 13.000 45.964 C 13.000 46.494 14.688 48.060 16.750 49.443 C 18.813 50.826 20.388 51.517 20.250 50.979 C 20.113 50.440 20.860 50.000 21.912 50.000 C 23.054 50.000 23.733 49.388 23.600 48.478 C 23.477 47.642 23.067 47.267 22.688 47.645 C 22.310 48.024 22.000 47.868 22.000 47.300 C 22.000 46.731 20.088 45.004 17.750 43.463 C 15.238 41.806 14.095 41.383 14.954 42.428 "/></g>
        <g fill="#84BED4FE" stroke="#84BED4FE">
        <path d="M 45.121 34.370 C 37.261 39.183 36.723 39.731 36.421 43.234 C 36.108 46.860 37.460 47.957 39.214 45.500 C 39.606 44.950 40.393 44.444 40.964 44.375 C 41.534 44.306 41.675 44.194 41.277 44.125 C 40.880 44.056 41.668 43.221 43.027 42.268 C 44.387 41.316 45.500 40.598 45.500 40.673 C 45.500 40.748 45.194 40.620 44.819 40.388 C 44.445 40.157 43.882 40.382 43.568 40.890 C 43.255 41.397 42.115 41.581 41.035 41.299 C 39.214 40.823 39.191 40.666 40.714 39.143 C 41.618 38.239 42.727 37.444 43.179 37.375 C 43.630 37.306 43.675 37.194 43.277 37.125 C 42.189 36.937 46.865 33.854 48.807 33.480 C 49.738 33.300 50.275 33.050 50.000 32.924 C 49.725 32.798 49.950 32.591 50.500 32.463 C 51.050 32.335 51.330 32.179 51.123 32.115 C 50.916 32.052 51.366 31.379 52.123 30.620 C 52.880 29.861 49.730 31.549 45.121 34.370 "/></g>
        <g fill="#EE723EFE" stroke="#EE723EFE">
        <path d="M 34.250 28.584 C 32.179 30.216 31.000 32.026 31.000 33.572 C 31.000 36.517 31.009 36.517 35.443 33.901 C 38.219 32.263 39.000 31.166 39.000 28.901 C 39.000 25.355 38.398 25.315 34.250 28.584 "/></g>
        <g fill="#EE723EFE" stroke="#EE723EFE">
        <path d="M 166.278 20.962 C 173.201 22.304 175.239 29.186 170.411 34.923 C 168.987 36.615 168.272 38.000 168.822 38.000 C 171.205 38.000 175.000 31.800 175.000 27.909 C 175.000 24.539 174.531 23.685 171.750 21.989 C 169.963 20.899 167.150 20.058 165.500 20.119 C 162.739 20.221 162.801 20.288 166.278 20.962 "/></g>
        <g fill="#EE723EFE" stroke="#EE723EFE">
        <path d="M 80.278 20.962 C 87.201 22.304 89.239 29.186 84.411 34.923 C 82.987 36.615 82.272 38.000 82.822 38.000 C 85.205 38.000 89.000 31.800 89.000 27.909 C 89.000 24.539 88.531 23.685 85.750 21.989 C 83.963 20.899 81.150 20.058 79.500 20.119 C 76.739 20.221 76.801 20.288 80.278 20.962 "/></g>
        <g fill="#EE723EFE" stroke="#EE723EFE">
        <path d="M 162.403 23.844 C 162.951 24.730 161.626 30.621 159.849 35.196 C 159.273 36.678 158.059 38.089 157.151 38.330 C 156.243 38.571 158.200 38.748 161.500 38.724 C 164.800 38.700 166.001 38.496 164.170 38.271 C 161.862 37.987 161.000 37.441 161.364 36.493 C 161.653 35.741 162.391 33.184 163.004 30.813 C 163.617 28.441 164.348 25.713 164.627 24.750 C 164.963 23.592 164.584 23.000 163.508 23.000 C 162.614 23.000 162.117 23.380 162.403 23.844 "/></g>
        <g fill="#EE723EFE" stroke="#EE723EFE">
        <path d="M 76.403 23.844 C 76.951 24.730 75.626 30.621 73.849 35.196 C 73.273 36.678 72.059 38.089 71.151 38.330 C 70.243 38.571 72.200 38.748 75.500 38.724 C 78.800 38.700 80.001 38.496 78.170 38.271 C 75.862 37.987 75.000 37.441 75.364 36.493 C 75.653 35.741 76.391 33.184 77.004 30.813 C 77.617 28.441 78.348 25.713 78.627 24.750 C 78.963 23.592 78.584 23.000 77.508 23.000 C 76.614 23.000 76.117 23.380 76.403 23.844 "/></g>
        <g fill="#84BED4FE" stroke="#84BED4FE">
        <path d="M 32.657 39.303 C 32.928 42.245 32.881 42.301 32.075 40.000 C 31.421 38.132 31.178 39.395 31.115 45.000 C 31.069 49.125 31.361 52.017 31.765 51.427 C 32.169 50.837 33.400 49.997 34.500 49.561 C 35.775 49.055 36.047 48.598 35.250 48.300 C 34.464 48.007 34.000 45.846 34.000 42.476 C 34.000 39.529 33.631 36.890 33.181 36.612 C 32.730 36.333 32.494 37.544 32.657 39.303 "/></g>
        <g fill="#EE723EFE" stroke="#EE723EFE">
        <path d="M 226.583 24.250 C 226.145 25.213 225.047 26.007 224.143 26.015 C 222.806 26.028 222.759 26.195 223.894 26.914 C 225.048 27.644 225.082 28.618 224.093 32.546 C 222.633 38.343 223.598 39.577 227.521 36.930 L 230.500 34.920 227.750 35.568 C 224.673 36.294 224.583 36.040 226.053 30.750 C 226.837 27.924 227.637 26.975 229.297 26.900 C 231.377 26.806 231.388 26.764 229.500 26.150 C 228.400 25.793 227.473 24.825 227.440 24.000 C 227.395 22.851 227.194 22.910 226.583 24.250 "/></g>
        <g fill="#EE723EFE" stroke="#EE723EFE">
        <path d="M 193.583 24.250 C 193.145 25.213 192.047 26.007 191.143 26.015 C 189.806 26.028 189.759 26.195 190.894 26.914 C 192.048 27.644 192.082 28.618 191.093 32.546 C 189.633 38.343 190.598 39.577 194.521 36.930 L 197.500 34.920 194.750 35.568 C 191.673 36.294 191.583 36.040 193.053 30.750 C 193.837 27.924 194.637 26.975 196.297 26.900 C 198.377 26.806 198.388 26.764 196.500 26.150 C 195.400 25.793 194.473 24.825 194.440 24.000 C 194.395 22.851 194.194 22.910 193.583 24.250 "/></g>
        <g fill="#EE723EFE" stroke="#EE723EFE">
        <path d="M 140.583 24.250 C 140.145 25.213 139.047 26.007 138.143 26.015 C 136.806 26.028 136.759 26.195 137.894 26.914 C 139.048 27.644 139.082 28.618 138.093 32.546 C 136.633 38.343 137.598 39.577 141.521 36.930 L 144.500 34.920 141.750 35.568 C 138.673 36.294 138.583 36.040 140.053 30.750 C 140.837 27.924 141.637 26.975 143.297 26.900 C 145.377 26.806 145.388 26.764 143.500 26.150 C 142.400 25.793 141.473 24.825 141.440 24.000 C 141.395 22.851 141.194 22.910 140.583 24.250 "/></g>
        <g fill="#EE723EFE" stroke="#EE723EFE">
        <path d="M 215.022 26.978 C 209.585 32.415 210.260 41.657 215.835 38.123 C 216.849 37.480 216.669 37.147 215.085 36.732 C 212.711 36.112 212.386 33.442 214.199 29.462 C 215.205 27.254 215.863 26.923 218.280 27.406 C 220.318 27.814 221.040 27.619 220.747 26.741 C 220.051 24.649 217.234 24.766 215.022 26.978 "/></g>
        <g fill="#EE723EFE" stroke="#EE723EFE">
        <path d="M 129.022 26.978 C 123.585 32.415 124.260 41.657 129.835 38.123 C 130.849 37.480 130.669 37.147 129.085 36.732 C 126.711 36.112 126.386 33.442 128.199 29.462 C 129.205 27.254 129.863 26.923 132.280 27.406 C 134.318 27.814 135.040 27.619 134.747 26.741 C 134.051 24.649 131.234 24.766 129.022 26.978 "/></g>
        <g fill="#EE723EFE" stroke="#EE723EFE">
        <path d="M 201.750 29.736 C 199.832 33.204 199.446 37.539 200.971 38.482 C 201.504 38.812 203.417 38.276 205.221 37.291 L 208.500 35.500 205.177 35.824 C 201.888 36.144 201.859 36.110 202.416 32.605 C 202.726 30.657 203.096 28.502 203.240 27.817 C 203.383 27.132 202.713 27.996 201.750 29.736 "/></g>
        <g fill="#EE723EFE" stroke="#EE723EFE">
        <path d="M 179.750 29.736 C 177.832 33.204 177.446 37.539 178.971 38.482 C 179.504 38.812 181.417 38.276 183.221 37.291 L 186.500 35.500 183.177 35.824 C 179.888 36.144 179.859 36.110 180.416 32.605 C 180.726 30.657 181.096 28.502 181.240 27.817 C 181.383 27.132 180.713 27.996 179.750 29.736 "/></g>
        <g fill="#EE723EFE" stroke="#EE723EFE">
        <path d="M 115.750 29.736 C 113.832 33.204 113.446 37.539 114.971 38.482 C 115.504 38.812 117.417 38.276 119.221 37.291 L 122.500 35.500 119.177 35.824 C 115.888 36.144 115.859 36.110 116.416 32.605 C 116.726 30.657 117.096 28.502 117.240 27.817 C 117.383 27.132 116.713 27.996 115.750 29.736 "/></g>
        <g fill="#EE723EFE" stroke="#EE723EFE">
        <path d="M 93.750 29.736 C 91.832 33.204 91.446 37.539 92.971 38.482 C 93.504 38.812 95.417 38.276 97.221 37.291 L 100.500 35.500 97.177 35.824 C 93.888 36.144 93.859 36.110 94.416 32.605 C 94.726 30.657 95.096 28.502 95.240 27.817 C 95.383 27.132 94.713 27.996 93.750 29.736 "/></g>
        <g fill="#EE723EFE" stroke="#EE723EFE">
        <path d="M 263.081 26.403 C 262.191 27.475 262.205 27.902 263.141 28.214 C 264.099 28.533 264.078 29.650 263.045 33.340 C 261.516 38.800 261.929 39.675 265.164 37.831 C 266.985 36.794 267.084 36.572 265.614 36.825 C 264.077 37.090 263.845 36.720 264.364 34.825 C 266.636 26.529 266.069 22.803 263.081 26.403 "/></g>
        <g fill="#F6D270FE" stroke="#F6D270FE">
        <path d="M 16.190 24.633 C 16.370 26.210 16.963 27.680 17.508 27.901 C 18.054 28.121 19.096 29.021 19.824 29.901 C 20.552 30.780 20.863 30.938 20.515 30.250 C 20.167 29.563 20.359 29.000 20.941 29.000 C 23.079 29.000 21.914 26.075 18.931 23.951 L 15.862 21.766 16.190 24.633 "/></g>
        <g fill="#EE723EFE" stroke="#EE723EFE">
        <path d="M 235.630 26.200 C 234.291 26.940 234.102 27.445 234.965 27.979 C 235.876 28.541 235.906 29.674 235.091 32.612 C 233.710 37.584 233.718 39.261 235.121 38.793 C 236.137 38.454 236.774 35.262 237.308 27.833 C 237.476 25.507 237.261 25.298 235.630 26.200 "/></g>
        <g fill="#EE723EFE" stroke="#EE723EFE">
        <path d="M 257.500 25.765 C 256.950 26.169 256.489 28.075 256.475 30.000 C 256.461 31.925 256.115 34.738 255.706 36.250 C 255.297 37.763 255.327 39.000 255.774 39.000 C 256.651 39.000 259.153 30.915 259.409 27.250 C 259.574 24.884 259.149 24.554 257.500 25.765 "/></g>
        <g fill="#EE723EFE" stroke="#EE723EFE">
        <path d="M 243.762 27.844 C 240.024 31.687 240.635 39.000 244.694 39.000 C 245.907 39.000 245.887 38.744 244.571 37.429 C 242.700 35.557 242.561 31.362 244.269 28.279 C 245.445 26.156 245.423 26.137 243.762 27.844 "/></g>
        <g fill="#F2B458FE" stroke="#F2B458FE">
        <path d="M 37.000 13.962 C 38.375 15.058 40.014 15.966 40.643 15.978 C 41.272 15.990 42.008 16.580 42.280 17.288 C 42.552 17.996 43.959 18.524 45.407 18.461 C 48.027 18.346 48.030 18.337 46.020 16.518 C 44.909 15.512 44.000 14.969 44.000 15.309 C 44.000 15.650 41.863 15.038 39.250 13.948 C 34.502 11.968 34.501 11.968 37.000 13.962 "/></g>
        <g fill="#F2B458FE" stroke="#F2B458FE">
        <path d="M 46.816 12.637 C 46.440 13.164 46.440 14.069 46.816 14.648 C 47.672 15.966 52.243 18.498 53.250 18.212 C 53.663 18.096 54.000 18.540 54.000 19.200 C 54.000 20.039 54.316 20.084 55.051 19.349 C 56.190 18.210 53.360 15.876 49.270 14.583 C 48.044 14.195 47.144 13.383 47.270 12.779 C 47.405 12.133 47.217 12.075 46.816 12.637 "/></g>
        <g fill="#EE723EFE" stroke="#EE723EFE">
        <path d="M 248.320 26.119 C 249.740 26.945 250.082 28.203 249.874 31.839 C 249.641 35.933 249.754 36.234 250.804 34.316 C 253.197 29.946 251.717 24.958 248.050 25.030 C 246.811 25.055 246.866 25.273 248.320 26.119 "/></g>
        <g fill="#F2B458FE" stroke="#F2B458FE">
        <path d="M 30.975 29.567 C 30.370 31.158 29.395 32.756 28.809 33.118 C 28.223 33.480 28.053 34.277 28.431 34.888 C 29.609 36.794 31.000 36.109 31.000 33.622 C 31.000 32.315 31.694 30.669 32.542 29.965 C 33.576 29.107 33.753 28.353 33.080 27.680 C 32.406 27.006 31.712 27.628 30.975 29.567 "/></g>
        <g fill="#F2B458FE" stroke="#F2B458FE">
        <path d="M 38.502 20.583 C 40.128 21.880 41.787 22.613 42.188 22.212 C 43.482 20.918 41.374 18.865 38.419 18.541 L 35.544 18.225 38.502 20.583 "/></g>
        <g fill="#68C0DEFE" stroke="#68C0DEFE">
        <path d="M 45.162 35.295 C 42.776 37.058 41.828 38.050 43.055 37.500 C 45.964 36.196 51.665 31.987 50.444 32.045 C 49.925 32.069 47.548 33.532 45.162 35.295 "/></g>
        <g fill="#EE723EFE" stroke="#EE723EFE">
        <path d="M 206.753 26.153 C 207.589 26.989 207.612 27.883 206.836 29.403 C 205.828 31.378 205.868 31.403 207.520 29.828 C 209.370 28.063 208.933 25.000 206.831 25.000 C 205.901 25.000 205.882 25.282 206.753 26.153 "/></g>
        <g fill="#EE723EFE" stroke="#EE723EFE">
        <path d="M 184.753 26.153 C 185.589 26.989 185.612 27.883 184.836 29.403 C 183.828 31.378 183.868 31.403 185.520 29.828 C 187.370 28.063 186.933 25.000 184.831 25.000 C 183.901 25.000 183.882 25.282 184.753 26.153 "/></g>
        <g fill="#EE723EFE" stroke="#EE723EFE">
        <path d="M 120.753 26.153 C 121.589 26.989 121.612 27.883 120.836 29.403 C 119.828 31.378 119.868 31.403 121.520 29.828 C 123.370 28.063 122.933 25.000 120.831 25.000 C 119.901 25.000 119.882 25.282 120.753 26.153 "/></g>
        <g fill="#EE723EFE" stroke="#EE723EFE">
        <path d="M 98.753 26.153 C 99.589 26.989 99.612 27.883 98.836 29.403 C 97.828 31.378 97.868 31.403 99.520 29.828 C 101.370 28.063 100.933 25.000 98.831 25.000 C 97.901 25.000 97.882 25.282 98.753 26.153 "/></g>
        <g fill="#F2B458FE" stroke="#F2B458FE">
        <path d="M 34.470 24.848 C 34.625 26.943 36.401 27.576 36.799 25.679 C 36.964 24.894 36.480 24.014 35.723 23.724 C 34.878 23.400 34.396 23.832 34.470 24.848 "/></g>
        <g fill="#84BED4FE" stroke="#84BED4FE">
        <path d="M 45.150 25.079 C 45.067 26.498 44.213 28.343 43.250 29.179 C 41.671 30.550 41.725 30.557 43.807 29.253 C 45.508 28.186 46.007 27.110 45.707 25.153 L 45.300 22.500 45.150 25.079 "/></g>
        <g fill="#EE723EFE" stroke="#EE723EFE">
        <path d="M 41.625 20.708 C 41.311 21.022 41.294 21.666 41.586 22.139 C 42.288 23.275 45.000 23.250 45.000 22.107 C 45.000 21.003 42.405 19.928 41.625 20.708 "/></g>
        <g fill="#F6D270FE" stroke="#F6D270FE">
        <path d="M 36.556 16.777 C 36.159 17.175 35.421 17.556 34.917 17.625 C 33.612 17.803 34.162 18.086 36.750 18.568 C 37.988 18.799 39.000 18.567 39.000 18.053 C 39.000 16.737 37.421 15.913 36.556 16.777 "/></g>
        <g fill="#F0743E76" stroke="#F0743E76">
        <path d="M 161.000 20.839 C 161.000 21.301 162.238 22.237 163.750 22.918 L 166.500 24.157 164.292 22.079 C 161.923 19.849 161.000 19.501 161.000 20.839 "/></g>
        <g fill="#F0743E76" stroke="#F0743E76">
        <path d="M 75.000 20.839 C 75.000 21.301 76.238 22.237 77.750 22.918 L 80.500 24.157 78.292 22.079 C 75.923 19.849 75.000 19.501 75.000 20.839 "/></g>
        <g fill="#F0743E76" stroke="#F0743E76">
        <path d="M 202.636 32.825 C 202.186 34.104 202.083 35.417 202.409 35.742 C 202.945 36.278 203.150 35.433 203.377 31.750 C 203.419 31.063 203.086 31.546 202.636 32.825 "/></g>
        <g fill="#F0743E76" stroke="#F0743E76">
        <path d="M 180.636 32.825 C 180.186 34.104 180.083 35.417 180.409 35.742 C 180.945 36.278 181.150 35.433 181.377 31.750 C 181.419 31.063 181.086 31.546 180.636 32.825 "/></g>
        <g fill="#F0743E76" stroke="#F0743E76">
        <path d="M 116.636 32.825 C 116.186 34.104 116.083 35.417 116.409 35.742 C 116.945 36.278 117.150 35.433 117.377 31.750 C 117.419 31.063 117.086 31.546 116.636 32.825 "/></g>
        <g fill="#F0743E76" stroke="#F0743E76">
        <path d="M 94.636 32.825 C 94.186 34.104 94.083 35.417 94.409 35.742 C 94.945 36.278 95.150 35.433 95.377 31.750 C 95.419 31.063 95.086 31.546 94.636 32.825 "/></g>
        <g fill="#F0743E76" stroke="#F0743E76">
        <path d="M 153.000 28.941 C 153.000 29.459 153.450 30.160 154.000 30.500 C 154.550 30.840 155.000 30.416 155.000 29.559 C 155.000 28.702 154.550 28.000 154.000 28.000 C 153.450 28.000 153.000 28.423 153.000 28.941 "/></g>
        <g fill="#F0743E76" stroke="#F0743E76">
        <path d="M 67.000 28.941 C 67.000 29.459 67.450 30.160 68.000 30.500 C 68.550 30.840 69.000 30.416 69.000 29.559 C 69.000 28.702 68.550 28.000 68.000 28.000 C 67.450 28.000 67.000 28.423 67.000 28.941 "/></g>
        <g fill="#F0703C22" stroke="#F0703C22">
        <path d="M 239.487 35.547 C 238.642 37.791 238.694 37.946 239.845 36.618 C 240.584 35.765 241.028 34.585 240.832 33.995 C 240.635 33.406 240.030 34.104 239.487 35.547 "/></g>
        <g fill="#EE723EFE" stroke="#EE723EFE">
        <path d="M 154.000 32.882 C 154.000 33.432 154.450 34.160 155.000 34.500 C 155.550 34.840 156.000 34.668 156.000 34.118 C 156.000 33.568 155.550 32.840 155.000 32.500 C 154.450 32.160 154.000 32.332 154.000 32.882 "/></g>
        <g fill="#EE723EFE" stroke="#EE723EFE">
        <path d="M 68.000 32.882 C 68.000 33.432 68.450 34.160 69.000 34.500 C 69.550 34.840 70.000 34.668 70.000 34.118 C 70.000 33.568 69.550 32.840 69.000 32.500 C 68.450 32.160 68.000 32.332 68.000 32.882 "/></g>
        <g fill="#F6D270FE" stroke="#F6D270FE">
        <path d="M 10.500 34.000 C 10.840 34.550 11.568 35.000 12.118 35.000 C 12.668 35.000 12.840 34.550 12.500 34.000 C 12.160 33.450 11.432 33.000 10.882 33.000 C 10.332 33.000 10.160 33.450 10.500 34.000 "/></g>
        <g fill="#F0743E76" stroke="#F0743E76">
        <path d="M 208.667 28.798 C 208.208 29.184 207.308 29.507 206.667 29.515 C 205.786 29.527 205.788 29.714 206.676 30.279 C 207.334 30.697 208.215 30.380 208.676 29.561 C 209.129 28.755 209.125 28.411 208.667 28.798 "/></g>
        <g fill="#F0743E76" stroke="#F0743E76">
        <path d="M 186.667 28.798 C 186.208 29.184 185.308 29.507 184.667 29.515 C 183.786 29.527 183.788 29.714 184.676 30.279 C 185.334 30.697 186.215 30.380 186.676 29.561 C 187.129 28.755 187.125 28.411 186.667 28.798 "/></g>
        <g fill="#F0743E76" stroke="#F0743E76">
        <path d="M 122.667 28.798 C 122.208 29.184 121.308 29.507 120.667 29.515 C 119.786 29.527 119.788 29.714 120.676 30.279 C 121.334 30.697 122.215 30.380 122.676 29.561 C 123.129 28.755 123.125 28.411 122.667 28.798 "/></g>
        <g fill="#F0743E76" stroke="#F0743E76">
        <path d="M 100.667 28.798 C 100.208 29.184 99.308 29.507 98.667 29.515 C 97.786 29.527 97.788 29.714 98.676 30.279 C 99.334 30.697 100.215 30.380 100.676 29.561 C 101.129 28.755 101.125 28.411 100.667 28.798 "/></g>
        <g fill="#F2B458FE" stroke="#F2B458FE">
        <path d="M 24.152 30.955 C 24.412 31.736 25.264 32.588 26.045 32.848 C 26.938 33.146 26.762 32.619 25.571 31.429 C 24.381 30.238 23.854 30.063 24.152 30.955 "/></g>
        <g fill="#F0703C22" stroke="#F0703C22">
        <path d="M 204.397 26.503 C 204.521 27.344 205.090 27.562 205.883 27.072 C 206.895 26.447 206.853 26.157 205.682 25.708 C 204.779 25.362 204.276 25.673 204.397 26.503 "/></g>
        <g fill="#F0703C22" stroke="#F0703C22">
        <path d="M 182.397 26.503 C 182.521 27.344 183.090 27.562 183.883 27.072 C 184.895 26.447 184.853 26.157 183.682 25.708 C 182.779 25.362 182.276 25.673 182.397 26.503 "/></g>
        <g fill="#F0703C22" stroke="#F0703C22">
        <path d="M 118.397 26.503 C 118.521 27.344 119.090 27.562 119.883 27.072 C 120.895 26.447 120.853 26.157 119.682 25.708 C 118.779 25.362 118.276 25.673 118.397 26.503 "/></g>
        <g fill="#F0703C22" stroke="#F0703C22">
        <path d="M 96.397 26.503 C 96.521 27.344 97.090 27.562 97.883 27.072 C 98.895 26.447 98.853 26.157 97.682 25.708 C 96.779 25.362 96.276 25.673 96.397 26.503 "/></g>
        <g fill="#F0703C22" stroke="#F0703C22">
        <path d="M 157.648 22.783 C 157.832 23.076 157.424 24.032 156.741 24.908 C 155.636 26.325 155.697 26.345 157.292 25.092 C 158.278 24.318 158.686 23.362 158.199 22.967 C 157.711 22.573 157.463 22.490 157.648 22.783 "/></g>
        <g fill="#F0703C22" stroke="#F0703C22">
        <path d="M 71.648 22.783 C 71.832 23.076 71.424 24.032 70.741 24.908 C 69.636 26.325 69.697 26.345 71.292 25.092 C 72.278 24.318 72.686 23.362 72.199 22.967 C 71.711 22.573 71.463 22.490 71.648 22.783 "/></g>
        <g fill="#EE723EFE" stroke="#EE723EFE">
        <path d="M 50.000 34.200 C 50.000 35.133 50.267 35.133 51.200 34.200 C 52.133 33.267 52.133 33.000 51.200 33.000 C 50.540 33.000 50.000 33.540 50.000 34.200 "/></g>
        <g fill="#F6D270FE" stroke="#F6D270FE">
        <path d="M 17.030 37.691 C 17.014 38.346 17.507 39.195 18.126 39.578 C 18.955 40.090 18.963 39.776 18.157 38.387 C 17.554 37.349 17.047 37.036 17.030 37.691 "/></g>
        <g fill="#F6D270FE" stroke="#F6D270FE">
        <path d="M 57.624 6.799 C 57.212 7.466 57.390 8.000 58.024 8.000 C 58.653 8.000 58.987 7.460 58.766 6.799 C 58.455 5.865 58.202 5.865 57.624 6.799 "/></g>
        <g fill="#F0743E76" stroke="#F0743E76">
        <path d="M 264.564 36.104 C 264.880 36.615 265.635 36.726 266.242 36.350 C 266.934 35.923 266.719 35.576 265.668 35.422 C 264.745 35.286 264.249 35.593 264.564 36.104 "/></g>
        <g fill="#F0743E76" stroke="#F0743E76">
        <path d="M 249.378 36.378 L 248.500 37.256 249.378 36.378 L 250.256 35.500 249.378 36.378 "/></g>
        <g fill="#F0743E76" stroke="#F0743E76">
        <path d="M 234.843 29.613 C 235.446 30.651 235.953 30.964 235.970 30.309 C 235.986 29.654 235.493 28.805 234.874 28.422 C 234.045 27.910 234.037 28.224 234.843 29.613 "/></g>
        <g fill="#F0743E76" stroke="#F0743E76">
        <path d="M 243.650 26.758 C 243.274 27.365 243.385 28.120 243.896 28.436 C 244.407 28.751 244.714 28.255 244.578 27.332 C 244.424 26.281 244.077 26.066 243.650 26.758 "/></g>
        <g fill="#F0743E76" stroke="#F0743E76">
        <path d="M 202.650 26.758 C 202.274 27.365 202.385 28.120 202.896 28.436 C 203.407 28.751 203.714 28.255 203.578 27.332 C 203.424 26.281 203.077 26.066 202.650 26.758 "/></g>
        <g fill="#F0743E76" stroke="#F0743E76">
        <path d="M 180.650 26.758 C 180.274 27.365 180.385 28.120 180.896 28.436 C 181.407 28.751 181.714 28.255 181.578 27.332 C 181.424 26.281 181.077 26.066 180.650 26.758 "/></g>
        <g fill="#F0743E76" stroke="#F0743E76">
        <path d="M 116.650 26.758 C 116.274 27.365 116.385 28.120 116.896 28.436 C 117.407 28.751 117.714 28.255 117.578 27.332 C 117.424 26.281 117.077 26.066 116.650 26.758 "/></g>
        <g fill="#F0743E76" stroke="#F0743E76">
        <path d="M 94.650 26.758 C 94.274 27.365 94.385 28.120 94.896 28.436 C 95.407 28.751 95.714 28.255 95.578 27.332 C 95.424 26.281 95.077 26.066 94.650 26.758 "/></g>
        <g fill="#F0743E76" stroke="#F0743E76">
        <path d="M 168.000 21.047 C 167.010 21.656 166.925 21.975 167.750 21.985 C 168.438 21.993 169.113 21.578 169.250 21.062 C 169.404 20.485 168.924 20.479 168.000 21.047 "/></g>
        <g fill="#F0743E76" stroke="#F0743E76">
        <path d="M 82.000 21.047 C 81.010 21.656 80.925 21.975 81.750 21.985 C 82.438 21.993 83.113 21.578 83.250 21.062 C 83.404 20.485 82.924 20.479 82.000 21.047 "/></g>
        <g fill="#F2B458FE" stroke="#F2B458FE">
        <path d="M 11.500 39.500 L 13.000 41.000 11.500 39.500 L 10.000 38.000 11.500 39.500 "/></g>
        <g fill="#F2B458FE" stroke="#F2B458FE">
        <path d="M 20.800 30.200 C 21.733 31.133 22.000 31.133 22.000 30.200 C 22.000 29.540 21.460 29.000 20.800 29.000 C 19.867 29.000 19.867 29.267 20.800 30.200 "/></g>
        <g fill="#F0703C22" stroke="#F0703C22">
        <path d="M 103.378 44.378 L 102.500 45.256 103.378 44.378 L 104.256 43.500 103.378 44.378 "/></g>
        <g fill="#F0703C22" stroke="#F0703C22">
        <path d="M 207.378 36.378 L 206.500 37.256 207.378 36.378 L 208.256 35.500 207.378 36.378 "/></g>
        <g fill="#F0703C22" stroke="#F0703C22">
        <path d="M 185.378 36.378 L 184.500 37.256 185.378 36.378 L 186.256 35.500 185.378 36.378 "/></g>
        <g fill="#F0703C22" stroke="#F0703C22">
        <path d="M 121.378 36.378 L 120.500 37.256 121.378 36.378 L 122.256 35.500 121.378 36.378 "/></g>
        <g fill="#F0703C22" stroke="#F0703C22">
        <path d="M 99.378 36.378 L 98.500 37.256 99.378 36.378 L 100.256 35.500 99.378 36.378 "/></g>
        <g fill="#F0703C22" stroke="#F0703C22">
        <path d="M 245.422 26.668 C 245.576 27.719 245.923 27.934 246.350 27.242 C 246.726 26.635 246.615 25.880 246.104 25.564 C 245.593 25.249 245.286 25.745 245.422 26.668 "/></g>
        <g fill="#F0703C22" stroke="#F0703C22">
        <path d="M 170.500 23.500 L 172.000 25.000 170.500 23.500 L 169.000 22.000 170.500 23.500 "/></g>
        <g fill="#F0703C22" stroke="#F0703C22">
        <path d="M 84.500 23.500 L 86.000 25.000 84.500 23.500 L 83.000 22.000 84.500 23.500 "/></g>
        <g fill="#F0703C22" stroke="#F0703C22">
        <path d="M 110.378 18.378 L 109.500 19.256 110.378 18.378 L 111.256 17.500 110.378 18.378 "/></g>
        <g fill="#EE743EAA" stroke="#EE743EAA">
        <path d="M 153.000 30.800 C 153.000 31.460 153.540 32.000 154.200 32.000 C 155.133 32.000 155.133 31.733 154.200 30.800 C 153.267 29.867 153.000 29.867 153.000 30.800 "/></g>
        <g fill="#EE743EAA" stroke="#EE743EAA">
        <path d="M 67.000 30.800 C 67.000 31.460 67.540 32.000 68.200 32.000 C 69.133 32.000 69.133 31.733 68.200 30.800 C 67.267 29.867 67.000 29.867 67.000 30.800 "/></g>
        <g fill="#EE743EAA" stroke="#EE743EAA">
        <path d="M 254.000 28.200 C 254.000 29.133 254.267 29.133 255.200 28.200 C 256.133 27.267 256.133 27.000 255.200 27.000 C 254.540 27.000 254.000 27.540 254.000 28.200 "/></g>
        <g fill="#FEFE96FE" stroke="#FEFE96FE">
        <path d="M 3.378 20.378 L 2.500 21.256 3.378 20.378 L 4.256 19.500 3.378 20.378 "/></g>

</svg>
